<svg width="36" height="51" viewBox="0 0 36 51" fill="none" xmlns="http://www.w3.org/2000/svg">
  <path d="M18.018 0C18.018 0 17.235 5.814 15.258 7.374C13.281 8.934 10.919 10.398 10.141 13.578C9.36 16.758 9.934 22.494 12.893 25.845C15.852 29.197 17.287 33.541 17.287 33.541C17.287 33.541 18.018 35.847 18.662 35.516C19.306 35.184 18.805 31.056 19.719 29.435C20.634 27.815 24.148 24.232 24.852 19.374C25.556 14.516 23.222 11.096 21.402 9.534C19.582 7.974 18.018 0 18.018 0Z" fill="white"/>
  <path d="M18.018 0C18.018 0 18.8 5.814 20.777 7.374C22.754 8.934 25.116 10.398 25.895 13.578C26.676 16.758 26.101 22.494 23.142 25.845C20.183 29.197 18.748 33.541 18.748 33.541C18.748 33.541 18.018 35.847 17.374 35.516C16.73 35.184 17.231 31.056 16.317 29.435C15.402 27.815 11.888 24.232 11.184 19.374C10.48 14.516 12.814 11.096 14.634 9.534C16.454 7.974 18.018 0 18.018 0Z" fill="white"/>
</svg>
